<svg width="344" height="377" viewBox="0 0 344 377" fill="none" xmlns="http://www.w3.org/2000/svg">
<path d="M263.051 166.343L240.483 274.78L199.548 297.102L160.029 302.468L125.407 297.104L79.5332 274.715L60.8623 174.667L160.134 124.789L263.051 166.343Z" fill="#F5D4BF" stroke="black" stroke-width="6"/>
<path d="M146 24.5L202.5 40V24.5L196 0L226 7L252.5 24.5L263.5 66L289.5 59L312 66L334.5 87L343.5 115L323.5 106L304.5 101L297.5 109.5L304.5 115L312 129.5L323.5 188L304.5 235L283 231L286.5 267.5L278 293.5L304.5 342.5L278 335.5L268 377L242.5 347L214 357.5L216.5 339H190.5L229 288L242.5 243L229 214.5L207 175V239L196 226.5L174 191.5V217L131 223V198.5V143.5L122.5 148L112.5 175V217L86.5 205.5V175L79 210V239L92 274L108.5 288L105 347L86.5 335.5L58.5 355.5L55.5 318.5L27.5 317L58.5 279.5V254.5H45L27.5 231L20.5 184L0 217V169L9 129.5L27.5 91L58.5 59L96 34L146 24.5Z" fill="black"/>
<path d="M112.5 212.5L134.5 227.5L131.5 250L119.5 257.5L100.5 255.5L91.9116 246.75L88 224L72 211.5L89 204L112.5 212.5Z" fill="black"/>
<path d="M197 221L225.615 213L244 205.5L232.5 236.5L225.615 252.25L205.5 261H182L173.5 253.5L164 239.5V227.5L197 221Z" fill="black"/>
<path d="M303.784 230.722L308.437 251.221L291.014 269.946L277.621 270.939L286.4 220.932L303.784 230.722Z" fill="#F5D4BF" stroke="black" stroke-width="6"/>
<path d="M55.2313 251.718L55.4769 273.506L26.8837 269.21L19.3858 243.709L25.2479 231.357L55.2313 251.718Z" fill="#F5D4BF" stroke="black" stroke-width="6"/>
</svg>
